<svg width="144" height="38" viewBox="0 0 144 38" fill="none" xmlns="http://www.w3.org/2000/svg">
<path d="M54.7507 12.1031C53.2243 12.1031 51.6727 12.4377 50.409 14.3927C49.5414 12.7442 48.0402 12.1031 46.4885 12.1031C44.8037 12.1031 43.3565 12.9766 42.8308 14.4983V13.6248C42.8308 12.8252 42.3844 12.3884 41.5672 12.3884H40.0156C39.202 12.3884 38.7519 12.8252 38.7519 13.6248V24.3823C38.7519 25.1784 39.1984 25.6187 40.0156 25.6187H41.5672C42.3844 25.6187 42.8308 25.1819 42.8308 24.3823V18.7957C42.8308 16.323 44.0657 15.3472 45.2789 15.3472C46.4921 15.3472 47.1978 16.3511 47.1978 18.2039V24.3823C47.1978 25.1784 47.6442 25.6187 48.4614 25.6187H50.013C50.8266 25.6187 51.2767 25.1819 51.2767 24.3823V18.6689C51.3307 16.249 52.5655 15.3472 53.6959 15.3472C54.9055 15.3472 55.6436 16.3511 55.6436 18.2039V24.3823C55.6436 25.1784 56.09 25.6187 56.9072 25.6187H58.4336C59.2473 25.6187 59.7225 25.1819 59.7225 24.3823V18.0243C59.7225 14.9105 58.25 12.1031 54.7507 12.1031Z" fill="#FBFBFB"/>
<path d="M69.4247 12.1031C65.137 12.1031 61.9257 15.1923 61.9257 19C61.9257 22.8078 65.1334 25.8969 69.4247 25.8969C73.716 25.8969 76.9237 22.8078 76.9237 19C76.9237 15.1923 73.7124 12.1031 69.4247 12.1031ZM69.4247 22.6809C67.3727 22.6809 65.7958 21.0853 65.7958 19.0247C65.7958 16.964 67.3727 15.3437 69.4247 15.3437C71.4768 15.3437 73.0536 16.9394 73.0536 19.0247C73.0536 21.1099 71.448 22.6809 69.4247 22.6809Z" fill="#FBFBFB"/>
<path d="M87.4975 12.1031C85.4994 12.1031 84.0522 12.9766 83.3934 14.4983V13.6248C83.3934 12.8252 82.9469 12.3884 82.1297 12.3884H80.5781C79.7645 12.3884 79.3145 12.8252 79.3145 13.6248V24.3823C79.3145 25.1784 79.7609 25.6187 80.5781 25.6187H82.1297C82.9469 25.6187 83.3934 25.1819 83.3934 24.3823V18.8732C83.3934 16.4004 84.8406 15.3472 86.2338 15.3472C87.6271 15.3472 88.3651 16.4286 88.3651 18.2814V24.3823C88.3651 25.1784 88.8115 25.6187 89.6287 25.6187H91.1552C91.9688 25.6187 92.444 25.1819 92.444 24.3823V17.9996C92.444 14.8858 91.1299 12.1066 87.4975 12.1066V12.1031Z" fill="#FBFBFB"/>
<path d="M108.356 12.3849H106.804C105.987 12.3849 105.541 12.8217 105.541 13.6212V14.2659C104.569 12.7723 102.988 12.1031 101.199 12.1031C97.4118 12.1031 94.7009 15.1148 94.7009 19C94.7009 22.8852 97.4118 25.8969 101.199 25.8969C102.988 25.8969 104.565 25.2277 105.541 23.7623V24.3788C105.541 25.1748 105.987 25.6151 106.804 25.6151H108.356C109.173 25.6151 109.62 25.1783 109.62 24.3788V13.6212C109.62 12.8217 109.173 12.3849 108.356 12.3849ZM102.146 22.7056C100.015 22.7056 98.7799 21.0571 98.7799 19C98.7799 16.9429 100.015 15.2944 102.146 15.2944C104.277 15.2944 105.591 16.8901 105.591 19C105.591 21.1099 104.223 22.7056 102.146 22.7056Z" fill="#FBFBFB"/>
<path d="M125.716 7.00612H124.19C123.372 7.00612 122.901 7.4429 122.901 8.24249V14.2659C121.929 12.7723 120.348 12.1031 118.588 12.1031C114.772 12.1031 112.064 15.1148 112.064 19C112.064 22.8852 114.775 25.8969 118.588 25.8969C120.352 25.8969 121.929 25.2277 122.901 23.7623V24.3788C122.901 25.1748 123.376 25.6151 124.19 25.6151H125.716C126.533 25.6151 126.98 25.1783 126.98 24.3788V8.24249C126.98 7.4429 126.533 7.00612 125.716 7.00612ZM119.506 22.7091C117.4 22.7091 116.14 21.0606 116.14 19.0035C116.14 16.9464 117.403 15.2979 119.506 15.2979C121.608 15.2979 122.951 16.8936 122.98 19.0035C122.955 21.1135 121.587 22.7091 119.506 22.7091Z" fill="#FBFBFB"/>
<path d="M143.997 18.5914C143.814 14.3715 140.657 12.1066 136.815 12.1066C132.265 12.1066 129.396 15.3226 129.396 19.0564C129.396 22.7901 132.34 25.904 137.182 25.904C138.918 25.904 140.732 25.5165 142.287 24.4105C142.997 23.8962 143.051 23.2023 142.525 22.5823L142.237 22.223C141.737 21.6313 141.157 21.5784 140.448 21.9659C139.422 22.533 138.421 22.7655 137.449 22.7655C134.846 22.7655 133.24 21.2473 133.291 19.6763H142.709C143.497 19.6763 144.023 19.3417 143.997 18.5949V18.5914ZM133.395 17.4537C133.842 15.7277 135.447 15.1112 136.869 15.1112C138.291 15.1112 139.814 15.6783 140.185 17.4537H133.395Z" fill="#FBFBFB"/>
<path d="M66.7422 9.22877L71.4476 10.4158C71.5664 10.4475 71.6924 10.4017 71.768 10.3066C71.7932 10.2749 71.8112 10.2397 71.8184 10.201C71.8364 10.127 71.8292 10.046 71.786 9.97553L69.3919 5.94939C69.3487 5.87894 69.2767 5.8261 69.1939 5.80849C69.1111 5.79088 69.0247 5.80849 68.9527 5.85428C67.6423 6.75603 66.7998 7.79514 66.519 8.85892C66.4758 9.01743 66.573 9.17946 66.7386 9.22173V9.22877H66.7422Z" fill="#FBFBFB"/>
<path d="M17.9248 2.1205C17.86 2.07119 17.7916 2.01483 17.716 1.95143C16.8196 1.22228 15.322 0 12.6219 0C12.1827 0 11.8263 0.348721 11.8263 0.78198V6.67853C5.95815 7.06952 0 11.7191 0 19C0 29.6483 7.23978 35.8196 7.31538 35.8795C7.38018 35.9288 7.44859 35.9852 7.52419 36.0486C8.42061 36.7777 9.91825 38 12.6183 38C13.0575 38 13.4175 37.6513 13.4175 37.218V31.3215C19.2821 30.9305 25.2402 26.2809 25.2402 19C25.2402 8.32703 18.0005 2.18039 17.9248 2.1205ZM23.5554 17.0274L13.7487 7.43233L17.4424 3.81832C18.9833 5.36466 22.9218 9.96144 23.559 17.0274H23.5554ZM13.4175 5.55135V1.60623C14.7028 1.75769 15.556 2.26492 16.24 2.78624L13.4175 5.54783V5.55135ZM23.6166 19.7785C23.2134 25.6292 18.2201 29.3841 13.4175 29.7575V24.2202L17.5504 19.7785H23.6166ZM13.4175 18.218V9.31331L22.5186 18.218H13.4175ZM13.4175 21.9025V19.7785H15.394L13.4175 21.9025ZM11.8227 32.4487V36.3902C10.5375 36.2388 9.68424 35.7316 9.00023 35.2102L11.8227 32.4487ZM1.62364 18.218C2.03045 12.3673 7.02018 8.61235 11.8227 8.24249V13.7798L7.68979 18.218H1.62364ZM11.8227 19.7785V28.6867L2.71807 19.7785H11.8227ZM11.8227 16.094V18.218H9.84625L11.8227 16.094ZM11.4915 30.5677L7.8014 34.1817C6.26056 32.6353 2.32206 28.0386 1.68484 20.9726L11.4915 30.5712V30.5677Z" fill="#FBFBFB"/>
</svg>
